<svg xmlns="http://www.w3.org/2000/svg" width="161" height="176" fill="none" viewBox="0 0 161 176">
  <g clip-path="url(#a)">
    <path fill="url(#b)" d="M85.16 6.5c27.5 2.385 19 25.547 36.023 37.071 14.977 11.929 31.153 10.775 36.573 26.685 2.756 8.094 2.943 25.484 1.534 33.937-2.633 15.838-25.277 19.495-36.521 28.513-18.54 14.863-18.872 42.822-49.516 37.737-14.965-2.485-21.349-25.319-31.287-34.727-10.747-10.169-28.769-11.73-36.655-25.299-5.534-9.511-6.384-26.572-3.628-37.12C7.166 52.364 24.66 56.657 40.847 43.57 56.66 32.047 55.16 9.885 77.16 6.5c2.772-.324 5.5-.166 8 0Zm15.307 50.157L80.686 32.555a.499.499 0 0 0-.794.03C69.3 47.714 59.45 64.76 42.11 73.296c-9.783 4.817-17.98 2.064-16.156 16.68 1.088 8.7 9.363 11.061 16.884 12.951a3.997 3.997 0 0 0 3.148-.522L62.671 91.62c2.59.092 16.581 13.352 16.85 16.064.298 3.081-11.688 12.3-15.825 14.498a.523.523 0 0 0-.19.755l16.266 23.766a.5.5 0 0 0 .821.004c11.057-15.654 19.01-29.3 36.133-39.495 4.591-2.733 15.991-6.615 18.374-10.55 5.099-8.422-2.704-21.364-11.752-23.058-3.99-.74-22.333 14.154-26.51 17.01-3.16-2.579-15.803-11.823-16.114-14.987-.27-2.712 9.855-12.017 12.477-14.339 1.949-1.725 4.726-3.872 7.265-4.632Z"/>
    <path fill="#38B49C" d="m160.16 88.755-23.556.01c-.953-6.933-8.581-14.364-13.768-14.364-7.324 0-18.107 12.614-25.768 16.172l-.197.134c-3.16-2.568-15.804-11.823-16.115-14.976 0-.02 0-.041-.01-.062-.114-2.783 9.438-11.729 12.04-14.02 2.6-2.29 4.282-3.312 7.604-5.506 3.322-2.194 14.693-10.437 30.804-5.67.021.01-1.584-.46.052.021a39.82 39.82 0 0 1 4.542 1.63c9.441 4.18 18.444 7.84 21.988 18.235 1.493 4.376 2.229 11.463 2.374 18.396h.01Z"/>
    <path fill="#0984C2" d="M20.794 40.9c11.395 0 20.633-9.155 20.633-20.45C41.427 9.156 32.189 0 20.794 0 9.398 0 .16 9.156.16 20.45c0 11.295 9.238 20.45 20.634 20.45Z"/>
    <path fill="#59BE8D" d="M139.371 40.9c11.396 0 20.634-9.155 20.634-20.45 0-11.294-9.238-20.45-20.634-20.45-11.395 0-20.633 9.156-20.633 20.45 0 11.295 9.238 20.45 20.633 20.45Z"/>
    <path fill="#0984C2" d="M20.794 176c11.395 0 20.633-9.156 20.633-20.45 0-11.295-9.238-20.451-20.633-20.451C9.398 135.099.16 144.255.16 155.55.16 166.844 9.398 176 20.794 176Z"/>
    <path fill="#59BE8D" d="M139.371 176c11.396 0 20.634-9.156 20.634-20.45 0-11.295-9.238-20.451-20.634-20.451-11.395 0-20.633 9.156-20.633 20.451 0 11.294 9.238 20.45 20.633 20.45Z"/>
  </g>
  <defs>
    <linearGradient id="b" x1="48.661" x2="111.864" y1="17.995" y2="159.618" gradientUnits="userSpaceOnUse">
      <stop stop-color="#0C85C2"/>
      <stop offset=".41" stop-color="#0B90BD"/>
      <stop offset=".58" stop-color="#38B49C"/>
      <stop offset="1" stop-color="#44BB93"/>
    </linearGradient>
    <clipPath id="a">
      <path fill="#fff" d="M.16 0h160v176H.16z"/>
    </clipPath>
  </defs>
</svg>
